<svg xmlns="http://www.w3.org/2000/svg" xmlns:xlink="http://www.w3.org/1999/xlink" width="940" zoomAndPan="magnify" viewBox="0 0 705 591.000005" height="788" preserveAspectRatio="xMidYMid meet" version="1.0"><defs><clipPath id="9eea15260f"><path d="M 67 315 L 232 315 L 232 582.179688 L 67 582.179688 Z M 67 315 " clip-rule="nonzero"/></clipPath><clipPath id="d57aa80eeb"><path d="M 148 7.902344 L 554 7.902344 L 554 193 L 148 193 Z M 148 7.902344 " clip-rule="nonzero"/></clipPath></defs><path fill="#000000" d="M 450.175781 567.964844 C 449.285156 567.964844 448.382812 567.964844 447.480469 567.964844 L 220.496094 558.796875 C 219.839844 558.773438 219.195312 558.683594 218.554688 558.53125 C 217.917969 558.378906 217.300781 558.171875 216.703125 557.902344 C 216.101562 557.632812 215.535156 557.308594 215 556.929688 C 214.464844 556.550781 213.96875 556.125 213.515625 555.648438 C 213.0625 555.175781 212.65625 554.664062 212.300781 554.113281 C 211.945312 553.5625 211.644531 552.980469 211.402344 552.375 C 211.15625 551.765625 210.972656 551.136719 210.847656 550.492188 C 210.722656 549.851562 210.660156 549.199219 210.664062 548.542969 L 210.664062 343.445312 C 210.664062 342.769531 210.726562 342.105469 210.859375 341.445312 C 210.992188 340.785156 211.183594 340.140625 211.441406 339.519531 C 211.699219 338.898438 212.015625 338.308594 212.390625 337.746094 C 212.765625 337.1875 213.191406 336.667969 213.667969 336.191406 C 214.140625 335.714844 214.660156 335.292969 215.21875 334.917969 C 215.78125 334.542969 216.371094 334.226562 216.992188 333.96875 C 217.613281 333.710938 218.257812 333.519531 218.917969 333.386719 C 219.578125 333.253906 220.242188 333.1875 220.917969 333.1875 L 333.054688 333.1875 C 337.25 333.191406 341.410156 333.558594 345.539062 334.285156 C 349.667969 335.015625 353.699219 336.097656 357.640625 337.535156 C 361.578125 338.972656 365.363281 340.738281 368.992188 342.835938 C 372.625 344.933594 376.042969 347.332031 379.253906 350.027344 L 438.734375 400.042969 C 440.511719 401.539062 442.152344 403.175781 443.65625 404.953125 L 524.8125 324.882812 C 527.25 322.765625 529.820312 320.824219 532.527344 319.066406 C 535.238281 317.308594 538.054688 315.746094 540.980469 314.382812 C 543.90625 313.019531 546.914062 311.867188 550.003906 310.925781 C 553.09375 309.984375 556.230469 309.261719 559.421875 308.761719 C 562.609375 308.257812 565.820312 307.980469 569.046875 307.929688 C 572.273438 307.878906 575.492188 308.050781 578.695312 308.449219 C 581.898438 308.851562 585.058594 309.46875 588.175781 310.3125 C 591.292969 311.15625 594.335938 312.210938 597.304688 313.480469 C 599.503906 314.324219 601.640625 315.296875 603.71875 316.398438 C 605.800781 317.503906 607.804688 318.730469 609.734375 320.074219 C 611.664062 321.421875 613.503906 322.882812 615.257812 324.453125 C 617.011719 326.023438 618.664062 327.695312 620.210938 329.464844 C 621.761719 331.238281 623.199219 333.097656 624.523438 335.042969 C 625.847656 336.988281 627.046875 339.007812 628.125 341.097656 C 629.207031 343.191406 630.152344 345.339844 630.972656 347.546875 C 631.789062 349.753906 632.46875 352.003906 633.011719 354.292969 C 633.621094 356.71875 634.082031 359.171875 634.394531 361.648438 C 634.707031 364.128906 634.871094 366.617188 634.886719 369.117188 C 634.902344 371.617188 634.769531 374.109375 634.484375 376.589844 C 634.203125 379.074219 633.769531 381.53125 633.191406 383.964844 C 632.613281 386.394531 631.894531 388.785156 631.03125 391.128906 C 630.164062 393.472656 629.164062 395.757812 628.027344 397.984375 C 626.886719 400.207031 625.621094 402.359375 624.226562 404.429688 C 622.828125 406.503906 621.316406 408.488281 619.683594 410.378906 L 504.355469 543.210938 C 502.679688 545.148438 500.90625 546.992188 499.03125 548.742188 C 497.160156 550.488281 495.195312 552.132812 493.148438 553.671875 C 491.097656 555.207031 488.96875 556.628906 486.765625 557.9375 C 484.5625 559.246094 482.296875 560.433594 479.964844 561.5 C 477.636719 562.5625 475.253906 563.5 472.824219 564.308594 C 470.390625 565.117188 467.925781 565.796875 465.421875 566.339844 C 462.917969 566.882812 460.390625 567.289062 457.84375 567.5625 C 455.296875 567.835938 452.738281 567.96875 450.175781 567.964844 Z M 231.171875 538.648438 L 448.269531 547.414062 C 450.175781 547.480469 452.082031 547.4375 453.984375 547.289062 C 455.886719 547.140625 457.773438 546.886719 459.648438 546.53125 C 461.523438 546.175781 463.371094 545.714844 465.195312 545.152344 C 467.015625 544.589844 468.804688 543.929688 470.554688 543.171875 C 472.304688 542.410156 474.007812 541.554688 475.660156 540.609375 C 477.316406 539.660156 478.914062 538.621094 480.457031 537.496094 C 481.996094 536.371094 483.46875 535.164062 484.875 533.875 C 486.28125 532.585938 487.613281 531.222656 488.871094 529.789062 L 604.1875 396.933594 C 605.285156 395.664062 606.300781 394.332031 607.238281 392.9375 C 608.175781 391.546875 609.027344 390.101562 609.792969 388.609375 C 610.558594 387.113281 611.230469 385.578125 611.808594 384.003906 C 612.390625 382.425781 612.875 380.824219 613.265625 379.1875 C 613.652344 377.554688 613.941406 375.90625 614.132812 374.238281 C 614.324219 372.570312 614.414062 370.894531 614.40625 369.214844 C 614.394531 367.539062 614.285156 365.863281 614.074219 364.199219 C 613.867188 362.535156 613.558594 360.886719 613.148438 359.257812 C 612.800781 357.765625 612.363281 356.296875 611.835938 354.859375 C 611.308594 353.417969 610.695312 352.015625 609.996094 350.652344 C 609.296875 349.285156 608.519531 347.96875 607.660156 346.695312 C 606.804688 345.425781 605.871094 344.210938 604.863281 343.054688 C 603.859375 341.898438 602.785156 340.804688 601.648438 339.777344 C 600.507812 338.75 599.3125 337.796875 598.058594 336.914062 C 596.800781 336.035156 595.5 335.230469 594.148438 334.507812 C 592.792969 333.785156 591.402344 333.148438 589.972656 332.59375 C 587.910156 331.710938 585.796875 330.96875 583.636719 330.367188 C 581.472656 329.769531 579.28125 329.316406 577.054688 329.015625 C 574.832031 328.710938 572.597656 328.558594 570.355469 328.558594 C 568.109375 328.558594 565.875 328.707031 563.652344 329.007812 C 561.429688 329.308594 559.234375 329.757812 557.070312 330.355469 C 554.90625 330.953125 552.792969 331.695312 550.730469 332.578125 C 548.667969 333.460938 546.675781 334.480469 544.75 335.632812 C 542.824219 336.785156 540.984375 338.0625 539.230469 339.464844 L 454.402344 423.167969 C 453.90625 423.652344 453.363281 424.085938 452.78125 424.46875 C 453.175781 426.75 453.367188 429.046875 453.367188 431.359375 C 453.363281 434.367188 453.035156 437.335938 452.378906 440.269531 C 451.726562 443.207031 450.761719 446.035156 449.488281 448.757812 C 448.214844 451.480469 446.660156 454.035156 444.828125 456.414062 C 442.996094 458.796875 440.925781 460.953125 438.621094 462.882812 C 437.664062 463.636719 436.675781 464.347656 435.660156 465.015625 C 434.640625 465.683594 433.597656 466.308594 432.527344 466.886719 C 431.453125 467.464844 430.359375 467.996094 429.242188 468.476562 C 428.125 468.960938 426.988281 469.394531 425.835938 469.78125 C 424.679688 470.167969 423.511719 470.503906 422.328125 470.785156 C 421.144531 471.070312 419.949219 471.304688 418.746094 471.484375 C 417.542969 471.667969 416.332031 471.796875 415.117188 471.875 C 413.902344 471.953125 412.6875 471.976562 411.46875 471.949219 C 410.253906 471.921875 409.039062 471.839844 407.828125 471.707031 C 406.617188 471.574219 405.417969 471.390625 404.222656 471.152344 C 403.027344 470.917969 401.847656 470.628906 400.675781 470.292969 C 399.507812 469.953125 398.355469 469.566406 397.21875 469.128906 C 396.082031 468.691406 394.96875 468.203125 393.875 467.667969 C 392.78125 467.136719 391.710938 466.554688 390.667969 465.929688 C 389.621094 465.304688 388.609375 464.632812 387.621094 463.917969 C 386.636719 463.203125 385.683594 462.449219 384.761719 461.652344 L 363.226562 443.554688 C 362.710938 443.121094 362.242188 442.640625 361.820312 442.113281 C 361.398438 441.589844 361.035156 441.027344 360.722656 440.429688 C 360.414062 439.832031 360.164062 439.207031 359.976562 438.5625 C 359.789062 437.914062 359.667969 437.253906 359.609375 436.585938 C 359.550781 435.914062 359.558594 435.242188 359.632812 434.574219 C 359.707031 433.902344 359.847656 433.25 360.050781 432.605469 C 360.253906 431.964844 360.515625 431.347656 360.84375 430.757812 C 361.167969 430.167969 361.546875 429.613281 361.980469 429.097656 C 362.414062 428.582031 362.894531 428.117188 363.417969 427.695312 C 363.945312 427.273438 364.507812 426.90625 365.105469 426.597656 C 365.703125 426.289062 366.324219 426.039062 366.972656 425.851562 C 367.617188 425.664062 368.277344 425.539062 368.949219 425.484375 C 369.621094 425.425781 370.289062 425.433594 370.960938 425.507812 C 371.628906 425.582031 372.285156 425.71875 372.925781 425.921875 C 373.570312 426.125 374.1875 426.390625 374.777344 426.714844 C 375.367188 427.039062 375.917969 427.417969 376.433594 427.851562 L 397.96875 445.953125 C 398.894531 446.785156 399.882812 447.53125 400.933594 448.195312 C 401.988281 448.855469 403.085938 449.421875 404.238281 449.894531 C 405.386719 450.367188 406.570312 450.734375 407.785156 451.003906 C 409 451.273438 410.226562 451.433594 411.46875 451.488281 C 412.710938 451.546875 413.949219 451.496094 415.179688 451.339844 C 416.414062 451.179688 417.625 450.917969 418.8125 450.554688 C 420 450.1875 421.148438 449.722656 422.257812 449.15625 C 423.367188 448.59375 424.417969 447.9375 425.410156 447.195312 C 425.988281 446.71875 426.539062 446.210938 427.058594 445.671875 C 427.582031 445.136719 428.070312 444.574219 428.53125 443.980469 C 428.992188 443.390625 429.417969 442.777344 429.808594 442.140625 C 430.203125 441.503906 430.558594 440.847656 430.878906 440.167969 C 431.199219 439.492188 431.484375 438.800781 431.726562 438.09375 C 431.972656 437.386719 432.179688 436.667969 432.34375 435.9375 C 432.511719 435.210938 432.636719 434.472656 432.722656 433.730469 C 432.808594 432.984375 432.851562 432.238281 432.855469 431.492188 C 432.859375 430.742188 432.824219 429.996094 432.746094 429.25 C 432.667969 428.507812 432.550781 427.769531 432.390625 427.039062 C 432.230469 426.304688 432.035156 425.585938 431.796875 424.875 C 431.558594 424.167969 431.285156 423.472656 430.96875 422.792969 C 430.65625 422.113281 430.304688 421.453125 429.921875 420.808594 C 429.535156 420.167969 429.113281 419.550781 428.660156 418.957031 C 428.207031 418.359375 427.722656 417.792969 427.207031 417.25 C 426.691406 416.707031 426.148438 416.195312 425.574219 415.710938 L 366.097656 365.699219 C 363.804688 363.769531 361.363281 362.058594 358.769531 360.558594 C 356.175781 359.058594 353.472656 357.796875 350.660156 356.769531 C 347.847656 355.742188 344.964844 354.96875 342.015625 354.449219 C 339.066406 353.929688 336.09375 353.667969 333.097656 353.667969 L 231.171875 353.667969 Z M 231.171875 538.648438 " fill-opacity="1" fill-rule="nonzero"/><path fill="#000000" d="M 450.175781 567.964844 C 449.285156 567.964844 448.382812 567.964844 447.480469 567.964844 L 220.496094 558.796875 C 219.839844 558.773438 219.195312 558.683594 218.554688 558.53125 C 217.917969 558.378906 217.300781 558.171875 216.703125 557.902344 C 216.101562 557.632812 215.535156 557.308594 215 556.929688 C 214.464844 556.550781 213.96875 556.125 213.515625 555.648438 C 213.0625 555.175781 212.65625 554.664062 212.300781 554.113281 C 211.945312 553.5625 211.644531 552.980469 211.402344 552.375 C 211.15625 551.765625 210.972656 551.136719 210.847656 550.492188 C 210.722656 549.851562 210.660156 549.199219 210.664062 548.542969 L 210.664062 343.445312 C 210.664062 342.769531 210.726562 342.105469 210.859375 341.445312 C 210.992188 340.785156 211.183594 340.140625 211.441406 339.519531 C 211.699219 338.898438 212.015625 338.308594 212.390625 337.746094 C 212.765625 337.1875 213.191406 336.667969 213.667969 336.191406 C 214.140625 335.714844 214.660156 335.292969 215.21875 334.917969 C 215.78125 334.542969 216.371094 334.226562 216.992188 333.96875 C 217.613281 333.710938 218.257812 333.519531 218.917969 333.386719 C 219.578125 333.253906 220.242188 333.1875 220.917969 333.1875 L 333.054688 333.1875 C 337.25 333.191406 341.410156 333.558594 345.539062 334.285156 C 349.667969 335.015625 353.699219 336.097656 357.640625 337.535156 C 361.578125 338.972656 365.363281 340.738281 368.992188 342.835938 C 372.625 344.933594 376.042969 347.332031 379.253906 350.027344 L 438.734375 400.042969 C 440.511719 401.539062 442.152344 403.175781 443.65625 404.953125 L 524.8125 324.882812 C 527.25 322.765625 529.820312 320.824219 532.527344 319.066406 C 535.238281 317.308594 538.054688 315.746094 540.980469 314.382812 C 543.90625 313.019531 546.914062 311.867188 550.003906 310.925781 C 553.09375 309.984375 556.230469 309.261719 559.421875 308.761719 C 562.609375 308.257812 565.820312 307.980469 569.046875 307.929688 C 572.273438 307.878906 575.492188 308.050781 578.695312 308.449219 C 581.898438 308.851562 585.058594 309.46875 588.175781 310.3125 C 591.292969 311.15625 594.335938 312.210938 597.304688 313.480469 C 599.503906 314.324219 601.640625 315.296875 603.71875 316.398438 C 605.800781 317.503906 607.804688 318.730469 609.734375 320.074219 C 611.664062 321.421875 613.503906 322.882812 615.257812 324.453125 C 617.011719 326.023438 618.664062 327.695312 620.210938 329.464844 C 621.761719 331.238281 623.199219 333.097656 624.523438 335.042969 C 625.847656 336.988281 627.046875 339.007812 628.125 341.097656 C 629.207031 343.191406 630.152344 345.339844 630.972656 347.546875 C 631.789062 349.753906 632.46875 352.003906 633.011719 354.292969 C 633.621094 356.71875 634.082031 359.171875 634.394531 361.648438 C 634.707031 364.128906 634.871094 366.617188 634.886719 369.117188 C 634.902344 371.617188 634.769531 374.109375 634.484375 376.589844 C 634.203125 379.074219 633.769531 381.53125 633.191406 383.964844 C 632.613281 386.394531 631.894531 388.785156 631.03125 391.128906 C 630.164062 393.472656 629.164062 395.757812 628.027344 397.984375 C 626.886719 400.207031 625.621094 402.359375 624.226562 404.429688 C 622.828125 406.503906 621.316406 408.488281 619.683594 410.378906 L 504.355469 543.210938 C 502.679688 545.148438 500.90625 546.992188 499.03125 548.742188 C 497.160156 550.488281 495.195312 552.132812 493.148438 553.671875 C 491.097656 555.207031 488.96875 556.628906 486.765625 557.9375 C 484.5625 559.246094 482.296875 560.433594 479.964844 561.5 C 477.636719 562.5625 475.253906 563.5 472.824219 564.308594 C 470.390625 565.117188 467.925781 565.796875 465.421875 566.339844 C 462.917969 566.882812 460.390625 567.289062 457.84375 567.5625 C 455.296875 567.835938 452.738281 567.96875 450.175781 567.964844 Z M 231.171875 538.648438 L 448.269531 547.414062 C 450.175781 547.480469 452.082031 547.4375 453.984375 547.289062 C 455.886719 547.140625 457.773438 546.886719 459.648438 546.53125 C 461.523438 546.175781 463.371094 545.714844 465.195312 545.152344 C 467.015625 544.589844 468.804688 543.929688 470.554688 543.171875 C 472.304688 542.410156 474.007812 541.554688 475.660156 540.609375 C 477.316406 539.660156 478.914062 538.621094 480.457031 537.496094 C 481.996094 536.371094 483.46875 535.164062 484.875 533.875 C 486.28125 532.585938 487.613281 531.222656 488.871094 529.789062 L 604.1875 396.933594 C 605.285156 395.664062 606.300781 394.332031 607.238281 392.9375 C 608.175781 391.546875 609.027344 390.101562 609.792969 388.609375 C 610.558594 387.113281 611.230469 385.578125 611.808594 384.003906 C 612.390625 382.425781 612.875 380.824219 613.265625 379.1875 C 613.652344 377.554688 613.941406 375.90625 614.132812 374.238281 C 614.324219 372.570312 614.414062 370.894531 614.40625 369.214844 C 614.394531 367.539062 614.285156 365.863281 614.074219 364.199219 C 613.867188 362.535156 613.558594 360.886719 613.148438 359.257812 C 612.800781 357.765625 612.363281 356.296875 611.835938 354.859375 C 611.308594 353.417969 610.695312 352.015625 609.996094 350.652344 C 609.296875 349.285156 608.519531 347.96875 607.660156 346.695312 C 606.804688 345.425781 605.871094 344.210938 604.863281 343.054688 C 603.859375 341.898438 602.785156 340.804688 601.648438 339.777344 C 600.507812 338.75 599.3125 337.796875 598.058594 336.914062 C 596.800781 336.035156 595.5 335.230469 594.148438 334.507812 C 592.792969 333.785156 591.402344 333.148438 589.972656 332.59375 C 587.910156 331.710938 585.796875 330.96875 583.636719 330.367188 C 581.472656 329.769531 579.28125 329.316406 577.054688 329.015625 C 574.832031 328.710938 572.597656 328.558594 570.355469 328.558594 C 568.109375 328.558594 565.875 328.707031 563.652344 329.007812 C 561.429688 329.308594 559.234375 329.757812 557.070312 330.355469 C 554.90625 330.953125 552.792969 331.695312 550.730469 332.578125 C 548.667969 333.460938 546.675781 334.480469 544.75 335.632812 C 542.824219 336.785156 540.984375 338.0625 539.230469 339.464844 L 454.402344 423.167969 C 453.90625 423.652344 453.363281 424.085938 452.78125 424.46875 C 453.175781 426.75 453.367188 429.046875 453.367188 431.359375 C 453.363281 434.367188 453.035156 437.335938 452.378906 440.269531 C 451.726562 443.207031 450.761719 446.035156 449.488281 448.757812 C 448.214844 451.480469 446.660156 454.035156 444.828125 456.414062 C 442.996094 458.796875 440.925781 460.953125 438.621094 462.882812 C 437.664062 463.636719 436.675781 464.347656 435.660156 465.015625 C 434.640625 465.683594 433.597656 466.308594 432.527344 466.886719 C 431.453125 467.464844 430.359375 467.996094 429.242188 468.476562 C 428.125 468.960938 426.988281 469.394531 425.835938 469.78125 C 424.679688 470.167969 423.511719 470.503906 422.328125 470.785156 C 421.144531 471.070312 419.949219 471.304688 418.746094 471.484375 C 417.542969 471.667969 416.332031 471.796875 415.117188 471.875 C 413.902344 471.953125 412.6875 471.976562 411.46875 471.949219 C 410.253906 471.921875 409.039062 471.839844 407.828125 471.707031 C 406.617188 471.574219 405.417969 471.390625 404.222656 471.152344 C 403.027344 470.917969 401.847656 470.628906 400.675781 470.292969 C 399.507812 469.953125 398.355469 469.566406 397.21875 469.128906 C 396.082031 468.691406 394.96875 468.203125 393.875 467.667969 C 392.78125 467.136719 391.710938 466.554688 390.667969 465.929688 C 389.621094 465.304688 388.609375 464.632812 387.621094 463.917969 C 386.636719 463.203125 385.683594 462.449219 384.761719 461.652344 L 363.226562 443.554688 C 362.710938 443.121094 362.242188 442.640625 361.820312 442.113281 C 361.398438 441.589844 361.035156 441.027344 360.722656 440.429688 C 360.414062 439.832031 360.164062 439.207031 359.976562 438.5625 C 359.789062 437.914062 359.667969 437.253906 359.609375 436.585938 C 359.550781 435.914062 359.558594 435.242188 359.632812 434.574219 C 359.707031 433.902344 359.847656 433.25 360.050781 432.605469 C 360.253906 431.964844 360.515625 431.347656 360.84375 430.757812 C 361.167969 430.167969 361.546875 429.613281 361.980469 429.097656 C 362.414062 428.582031 362.894531 428.117188 363.417969 427.695312 C 363.945312 427.273438 364.507812 426.90625 365.105469 426.597656 C 365.703125 426.289062 366.324219 426.039062 366.972656 425.851562 C 367.617188 425.664062 368.277344 425.539062 368.949219 425.484375 C 369.621094 425.425781 370.289062 425.433594 370.960938 425.507812 C 371.628906 425.582031 372.285156 425.71875 372.925781 425.921875 C 373.570312 426.125 374.1875 426.390625 374.777344 426.714844 C 375.367188 427.039062 375.917969 427.417969 376.433594 427.851562 L 397.96875 445.953125 C 398.894531 446.785156 399.882812 447.53125 400.933594 448.195312 C 401.988281 448.855469 403.085938 449.421875 404.238281 449.894531 C 405.386719 450.367188 406.570312 450.734375 407.785156 451.003906 C 409 451.273438 410.226562 451.433594 411.46875 451.488281 C 412.710938 451.546875 413.949219 451.496094 415.179688 451.339844 C 416.414062 451.179688 417.625 450.917969 418.8125 450.554688 C 420 450.1875 421.148438 449.722656 422.257812 449.15625 C 423.367188 448.59375 424.417969 447.9375 425.410156 447.195312 C 425.988281 446.71875 426.539062 446.210938 427.058594 445.671875 C 427.582031 445.136719 428.070312 444.574219 428.53125 443.980469 C 428.992188 443.390625 429.417969 442.777344 429.808594 442.140625 C 430.203125 441.503906 430.558594 440.847656 430.878906 440.167969 C 431.199219 439.492188 431.484375 438.800781 431.726562 438.09375 C 431.972656 437.386719 432.179688 436.667969 432.34375 435.9375 C 432.511719 435.210938 432.636719 434.472656 432.722656 433.730469 C 432.808594 432.984375 432.851562 432.238281 432.855469 431.492188 C 432.859375 430.742188 432.824219 429.996094 432.746094 429.25 C 432.667969 428.507812 432.550781 427.769531 432.390625 427.039062 C 432.230469 426.304688 432.035156 425.585938 431.796875 424.875 C 431.558594 424.167969 431.285156 423.472656 430.96875 422.792969 C 430.65625 422.113281 430.304688 421.453125 429.921875 420.808594 C 429.535156 420.167969 429.113281 419.550781 428.660156 418.957031 C 428.207031 418.359375 427.722656 417.792969 427.207031 417.25 C 426.691406 416.707031 426.148438 416.195312 425.574219 415.710938 L 366.097656 365.699219 C 363.804688 363.769531 361.363281 362.058594 358.769531 360.558594 C 356.175781 359.058594 353.472656 357.796875 350.660156 356.769531 C 347.847656 355.742188 344.964844 354.96875 342.015625 354.449219 C 339.066406 353.929688 336.09375 353.667969 333.097656 353.667969 L 231.171875 353.667969 Z M 231.171875 538.648438 " fill-opacity="1" fill-rule="nonzero"/><g clip-path="url(#9eea15260f)"><path fill="#000000" d="M 200.40625 582.179688 L 97.859375 582.179688 C 96.851562 582.179688 95.84375 582.128906 94.84375 582.03125 C 93.839844 581.933594 92.84375 581.785156 91.855469 581.589844 C 90.867188 581.390625 89.890625 581.148438 88.925781 580.855469 C 87.964844 580.5625 87.015625 580.222656 86.085938 579.839844 C 85.152344 579.453125 84.242188 579.023438 83.355469 578.546875 C 82.464844 578.074219 81.601562 577.554688 80.765625 576.996094 C 79.929688 576.433594 79.121094 575.835938 78.339844 575.195312 C 77.5625 574.558594 76.816406 573.882812 76.105469 573.167969 C 75.390625 572.457031 74.714844 571.710938 74.078125 570.933594 C 73.4375 570.152344 72.835938 569.34375 72.277344 568.507812 C 71.71875 567.667969 71.199219 566.804688 70.726562 565.917969 C 70.25 565.027344 69.820312 564.121094 69.433594 563.1875 C 69.050781 562.257812 68.710938 561.308594 68.417969 560.34375 C 68.125 559.382812 67.878906 558.40625 67.683594 557.417969 C 67.488281 556.429688 67.339844 555.433594 67.242188 554.429688 C 67.140625 553.429688 67.09375 552.421875 67.09375 551.414062 L 67.09375 346.316406 C 67.09375 345.308594 67.140625 344.304688 67.242188 343.300781 C 67.339844 342.296875 67.488281 341.300781 67.683594 340.3125 C 67.878906 339.324219 68.125 338.347656 68.417969 337.386719 C 68.710938 336.421875 69.050781 335.472656 69.433594 334.542969 C 69.820312 333.613281 70.25 332.703125 70.726562 331.8125 C 71.199219 330.925781 71.71875 330.0625 72.277344 329.222656 C 72.835938 328.386719 73.4375 327.578125 74.078125 326.796875 C 74.714844 326.019531 75.390625 325.273438 76.105469 324.5625 C 76.816406 323.847656 77.5625 323.171875 78.339844 322.535156 C 79.121094 321.894531 79.929688 321.296875 80.765625 320.734375 C 81.601562 320.175781 82.464844 319.660156 83.355469 319.183594 C 84.242188 318.707031 85.152344 318.277344 86.085938 317.894531 C 87.015625 317.507812 87.964844 317.167969 88.925781 316.875 C 89.890625 316.582031 90.867188 316.339844 91.855469 316.140625 C 92.84375 315.945312 93.839844 315.796875 94.84375 315.699219 C 95.84375 315.601562 96.851562 315.550781 97.859375 315.550781 L 200.40625 315.550781 C 201.414062 315.550781 202.421875 315.601562 203.421875 315.699219 C 204.425781 315.796875 205.421875 315.945312 206.410156 316.140625 C 207.398438 316.339844 208.375 316.582031 209.339844 316.875 C 210.300781 317.167969 211.25 317.507812 212.179688 317.894531 C 213.113281 318.277344 214.019531 318.707031 214.910156 319.183594 C 215.796875 319.660156 216.660156 320.175781 217.5 320.734375 C 218.335938 321.296875 219.144531 321.894531 219.925781 322.535156 C 220.703125 323.171875 221.449219 323.847656 222.160156 324.5625 C 222.875 325.273438 223.550781 326.019531 224.1875 326.796875 C 224.828125 327.578125 225.429688 328.386719 225.988281 329.222656 C 226.546875 330.0625 227.066406 330.925781 227.539062 331.8125 C 228.015625 332.703125 228.445312 333.613281 228.832031 334.542969 C 229.214844 335.472656 229.554688 336.421875 229.847656 337.386719 C 230.140625 338.347656 230.382812 339.324219 230.582031 340.3125 C 230.777344 341.300781 230.925781 342.296875 231.023438 343.300781 C 231.121094 344.304688 231.171875 345.308594 231.171875 346.316406 L 231.171875 551.414062 C 231.171875 552.421875 231.121094 553.429688 231.023438 554.429688 C 230.925781 555.433594 230.777344 556.429688 230.582031 557.417969 C 230.382812 558.40625 230.140625 559.382812 229.847656 560.34375 C 229.554688 561.308594 229.214844 562.257812 228.832031 563.1875 C 228.445312 564.121094 228.015625 565.027344 227.539062 565.917969 C 227.066406 566.804688 226.546875 567.667969 225.988281 568.507812 C 225.429688 569.34375 224.828125 570.152344 224.1875 570.933594 C 223.550781 571.710938 222.875 572.457031 222.160156 573.167969 C 221.449219 573.882812 220.703125 574.558594 219.925781 575.195312 C 219.144531 575.835938 218.335938 576.433594 217.5 576.996094 C 216.660156 577.554688 215.796875 578.074219 214.910156 578.546875 C 214.019531 579.023438 213.113281 579.453125 212.179688 579.839844 C 211.25 580.222656 210.300781 580.5625 209.339844 580.855469 C 208.375 581.148438 207.398438 581.390625 206.410156 581.589844 C 205.421875 581.785156 204.425781 581.933594 203.421875 582.03125 C 202.421875 582.128906 201.414062 582.179688 200.40625 582.179688 Z M 97.859375 336.0625 C 97.183594 336.0625 96.515625 336.125 95.855469 336.257812 C 95.195312 336.390625 94.554688 336.582031 93.933594 336.839844 C 93.3125 337.097656 92.71875 337.414062 92.160156 337.789062 C 91.601562 338.164062 91.082031 338.589844 90.605469 339.0625 C 90.128906 339.539062 89.707031 340.058594 89.332031 340.617188 C 88.957031 341.179688 88.640625 341.769531 88.382812 342.390625 C 88.125 343.011719 87.929688 343.65625 87.800781 344.316406 C 87.667969 344.976562 87.601562 345.640625 87.601562 346.316406 L 87.601562 551.414062 C 87.601562 552.089844 87.667969 552.753906 87.800781 553.414062 C 87.929688 554.074219 88.125 554.71875 88.382812 555.339844 C 88.640625 555.960938 88.957031 556.550781 89.332031 557.113281 C 89.707031 557.671875 90.128906 558.191406 90.605469 558.667969 C 91.082031 559.140625 91.601562 559.566406 92.160156 559.941406 C 92.71875 560.316406 93.3125 560.632812 93.933594 560.890625 C 94.554688 561.148438 95.195312 561.339844 95.855469 561.472656 C 96.515625 561.605469 97.183594 561.671875 97.859375 561.671875 L 200.40625 561.671875 C 201.082031 561.671875 201.746094 561.605469 202.40625 561.472656 C 203.070312 561.339844 203.710938 561.148438 204.332031 560.890625 C 204.953125 560.632812 205.546875 560.316406 206.105469 559.941406 C 206.664062 559.566406 207.183594 559.140625 207.660156 558.667969 C 208.136719 558.191406 208.558594 557.671875 208.933594 557.113281 C 209.308594 556.550781 209.625 555.960938 209.882812 555.339844 C 210.140625 554.71875 210.335938 554.074219 210.464844 553.414062 C 210.597656 552.753906 210.664062 552.089844 210.664062 551.414062 L 210.664062 346.316406 C 210.664062 345.640625 210.597656 344.976562 210.464844 344.316406 C 210.335938 343.65625 210.140625 343.011719 209.882812 342.390625 C 209.625 341.769531 209.308594 341.179688 208.933594 340.617188 C 208.558594 340.058594 208.136719 339.539062 207.660156 339.0625 C 207.183594 338.589844 206.664062 338.164062 206.105469 337.789062 C 205.546875 337.414062 204.953125 337.097656 204.332031 336.839844 C 203.710938 336.582031 203.070312 336.390625 202.40625 336.257812 C 201.746094 336.125 201.082031 336.0625 200.40625 336.0625 Z M 97.859375 336.0625 " fill-opacity="1" fill-rule="nonzero"/><path fill="#000000" d="M 200.40625 582.179688 L 97.859375 582.179688 C 96.851562 582.179688 95.84375 582.128906 94.84375 582.03125 C 93.839844 581.933594 92.84375 581.785156 91.855469 581.589844 C 90.867188 581.390625 89.890625 581.148438 88.925781 580.855469 C 87.964844 580.5625 87.015625 580.222656 86.085938 579.839844 C 85.152344 579.453125 84.242188 579.023438 83.355469 578.546875 C 82.464844 578.074219 81.601562 577.554688 80.765625 576.996094 C 79.929688 576.433594 79.121094 575.835938 78.339844 575.195312 C 77.5625 574.558594 76.816406 573.882812 76.105469 573.167969 C 75.390625 572.457031 74.714844 571.710938 74.078125 570.933594 C 73.4375 570.152344 72.835938 569.34375 72.277344 568.507812 C 71.71875 567.667969 71.199219 566.804688 70.726562 565.917969 C 70.25 565.027344 69.820312 564.121094 69.433594 563.1875 C 69.050781 562.257812 68.710938 561.308594 68.417969 560.34375 C 68.125 559.382812 67.878906 558.40625 67.683594 557.417969 C 67.488281 556.429688 67.339844 555.433594 67.242188 554.429688 C 67.140625 553.429688 67.09375 552.421875 67.09375 551.414062 L 67.09375 346.316406 C 67.09375 345.308594 67.140625 344.304688 67.242188 343.300781 C 67.339844 342.296875 67.488281 341.300781 67.683594 340.3125 C 67.878906 339.324219 68.125 338.347656 68.417969 337.386719 C 68.710938 336.421875 69.050781 335.472656 69.433594 334.542969 C 69.820312 333.613281 70.25 332.703125 70.726562 331.8125 C 71.199219 330.925781 71.71875 330.0625 72.277344 329.222656 C 72.835938 328.386719 73.4375 327.578125 74.078125 326.796875 C 74.714844 326.019531 75.390625 325.273438 76.105469 324.5625 C 76.816406 323.847656 77.5625 323.171875 78.339844 322.535156 C 79.121094 321.894531 79.929688 321.296875 80.765625 320.734375 C 81.601562 320.175781 82.464844 319.660156 83.355469 319.183594 C 84.242188 318.707031 85.152344 318.277344 86.085938 317.894531 C 87.015625 317.507812 87.964844 317.167969 88.925781 316.875 C 89.890625 316.582031 90.867188 316.339844 91.855469 316.140625 C 92.84375 315.945312 93.839844 315.796875 94.84375 315.699219 C 95.84375 315.601562 96.851562 315.550781 97.859375 315.550781 L 200.40625 315.550781 C 201.414062 315.550781 202.421875 315.601562 203.421875 315.699219 C 204.425781 315.796875 205.421875 315.945312 206.410156 316.140625 C 207.398438 316.339844 208.375 316.582031 209.339844 316.875 C 210.300781 317.167969 211.25 317.507812 212.179688 317.894531 C 213.113281 318.277344 214.019531 318.707031 214.910156 319.183594 C 215.796875 319.660156 216.660156 320.175781 217.5 320.734375 C 218.335938 321.296875 219.144531 321.894531 219.925781 322.535156 C 220.703125 323.171875 221.449219 323.847656 222.160156 324.5625 C 222.875 325.273438 223.550781 326.019531 224.1875 326.796875 C 224.828125 327.578125 225.429688 328.386719 225.988281 329.222656 C 226.546875 330.0625 227.066406 330.925781 227.539062 331.8125 C 228.015625 332.703125 228.445312 333.613281 228.832031 334.542969 C 229.214844 335.472656 229.554688 336.421875 229.847656 337.386719 C 230.140625 338.347656 230.382812 339.324219 230.582031 340.3125 C 230.777344 341.300781 230.925781 342.296875 231.023438 343.300781 C 231.121094 344.304688 231.171875 345.308594 231.171875 346.316406 L 231.171875 551.414062 C 231.171875 552.421875 231.121094 553.429688 231.023438 554.429688 C 230.925781 555.433594 230.777344 556.429688 230.582031 557.417969 C 230.382812 558.40625 230.140625 559.382812 229.847656 560.34375 C 229.554688 561.308594 229.214844 562.257812 228.832031 563.1875 C 228.445312 564.121094 228.015625 565.027344 227.539062 565.917969 C 227.066406 566.804688 226.546875 567.667969 225.988281 568.507812 C 225.429688 569.34375 224.828125 570.152344 224.1875 570.933594 C 223.550781 571.710938 222.875 572.457031 222.160156 573.167969 C 221.449219 573.882812 220.703125 574.558594 219.925781 575.195312 C 219.144531 575.835938 218.335938 576.433594 217.5 576.996094 C 216.660156 577.554688 215.796875 578.074219 214.910156 578.546875 C 214.019531 579.023438 213.113281 579.453125 212.179688 579.839844 C 211.25 580.222656 210.300781 580.5625 209.339844 580.855469 C 208.375 581.148438 207.398438 581.390625 206.410156 581.589844 C 205.421875 581.785156 204.425781 581.933594 203.421875 582.03125 C 202.421875 582.128906 201.414062 582.179688 200.40625 582.179688 Z M 97.859375 336.0625 C 97.183594 336.0625 96.515625 336.125 95.855469 336.257812 C 95.195312 336.390625 94.554688 336.582031 93.933594 336.839844 C 93.3125 337.097656 92.71875 337.414062 92.160156 337.789062 C 91.601562 338.164062 91.082031 338.589844 90.605469 339.0625 C 90.128906 339.539062 89.707031 340.058594 89.332031 340.617188 C 88.957031 341.179688 88.640625 341.769531 88.382812 342.390625 C 88.125 343.011719 87.929688 343.65625 87.800781 344.316406 C 87.667969 344.976562 87.601562 345.640625 87.601562 346.316406 L 87.601562 551.414062 C 87.601562 552.089844 87.667969 552.753906 87.800781 553.414062 C 87.929688 554.074219 88.125 554.71875 88.382812 555.339844 C 88.640625 555.960938 88.957031 556.550781 89.332031 557.113281 C 89.707031 557.671875 90.128906 558.191406 90.605469 558.667969 C 91.082031 559.140625 91.601562 559.566406 92.160156 559.941406 C 92.71875 560.316406 93.3125 560.632812 93.933594 560.890625 C 94.554688 561.148438 95.195312 561.339844 95.855469 561.472656 C 96.515625 561.605469 97.183594 561.671875 97.859375 561.671875 L 200.40625 561.671875 C 201.082031 561.671875 201.746094 561.605469 202.40625 561.472656 C 203.070312 561.339844 203.710938 561.148438 204.332031 560.890625 C 204.953125 560.632812 205.546875 560.316406 206.105469 559.941406 C 206.664062 559.566406 207.183594 559.140625 207.660156 558.667969 C 208.136719 558.191406 208.558594 557.671875 208.933594 557.113281 C 209.308594 556.550781 209.625 555.960938 209.882812 555.339844 C 210.140625 554.71875 210.335938 554.074219 210.464844 553.414062 C 210.597656 552.753906 210.664062 552.089844 210.664062 551.414062 L 210.664062 346.316406 C 210.664062 345.640625 210.597656 344.976562 210.464844 344.316406 C 210.335938 343.65625 210.140625 343.011719 209.882812 342.390625 C 209.625 341.769531 209.308594 341.179688 208.933594 340.617188 C 208.558594 340.058594 208.136719 339.539062 207.660156 339.0625 C 207.183594 338.589844 206.664062 338.164062 206.105469 337.789062 C 205.546875 337.414062 204.953125 337.097656 204.332031 336.839844 C 203.710938 336.582031 203.070312 336.390625 202.40625 336.257812 C 201.746094 336.125 201.082031 336.0625 200.40625 336.0625 Z M 97.859375 336.0625 " fill-opacity="1" fill-rule="nonzero"/></g><g clip-path="url(#d57aa80eeb)"><path fill="#000000" d="M 351 192.492188 C 349.765625 192.492188 348.570312 192.277344 347.414062 191.84375 L 155.355469 120.058594 C 154.414062 119.707031 153.542969 119.226562 152.746094 118.621094 C 151.945312 118.011719 151.25 117.300781 150.65625 116.488281 C 150.066406 115.675781 149.601562 114.796875 149.269531 113.847656 C 148.9375 112.898438 148.75 111.921875 148.703125 110.917969 C 148.660156 109.914062 148.757812 108.921875 149.003906 107.949219 C 149.25 106.972656 149.628906 106.054688 150.144531 105.191406 C 150.664062 104.328125 151.292969 103.558594 152.035156 102.882812 C 152.777344 102.203125 153.601562 101.648438 154.507812 101.210938 L 346.5625 8.917969 C 347.964844 8.242188 349.445312 7.90625 351 7.90625 C 352.558594 7.90625 354.039062 8.242188 355.441406 8.917969 L 547.496094 101.210938 C 548.402344 101.648438 549.226562 102.203125 549.96875 102.882812 C 550.710938 103.558594 551.339844 104.328125 551.855469 105.191406 C 552.371094 106.054688 552.753906 106.972656 553 107.949219 C 553.246094 108.921875 553.34375 109.914062 553.300781 110.917969 C 553.253906 111.921875 553.066406 112.898438 552.734375 113.847656 C 552.398438 114.796875 551.9375 115.675781 551.347656 116.488281 C 550.753906 117.300781 550.058594 118.011719 549.257812 118.621094 C 548.457031 119.226562 547.585938 119.707031 546.644531 120.058594 L 354.589844 191.84375 C 353.433594 192.277344 352.238281 192.492188 351 192.492188 Z M 185.078125 109.273438 L 351 171.292969 L 516.925781 109.273438 L 351 29.53125 Z M 185.078125 109.273438 " fill-opacity="1" fill-rule="nonzero"/><path fill="#000000" d="M 351 192.492188 C 349.765625 192.492188 348.570312 192.277344 347.414062 191.84375 L 155.355469 120.058594 C 154.414062 119.707031 153.542969 119.226562 152.746094 118.621094 C 151.945312 118.011719 151.25 117.300781 150.65625 116.488281 C 150.066406 115.675781 149.601562 114.796875 149.269531 113.847656 C 148.9375 112.898438 148.75 111.921875 148.703125 110.917969 C 148.660156 109.914062 148.757812 108.921875 149.003906 107.949219 C 149.25 106.972656 149.628906 106.054688 150.144531 105.191406 C 150.664062 104.328125 151.292969 103.558594 152.035156 102.882812 C 152.777344 102.203125 153.601562 101.648438 154.507812 101.210938 L 346.5625 8.917969 C 347.964844 8.242188 349.445312 7.90625 351 7.90625 C 352.558594 7.90625 354.039062 8.242188 355.441406 8.917969 L 547.496094 101.210938 C 548.402344 101.648438 549.226562 102.203125 549.96875 102.882812 C 550.710938 103.558594 551.339844 104.328125 551.855469 105.191406 C 552.371094 106.054688 552.753906 106.972656 553 107.949219 C 553.246094 108.921875 553.34375 109.914062 553.300781 110.917969 C 553.253906 111.921875 553.066406 112.898438 552.734375 113.847656 C 552.398438 114.796875 551.9375 115.675781 551.347656 116.488281 C 550.753906 117.300781 550.058594 118.011719 549.257812 118.621094 C 548.457031 119.226562 547.585938 119.707031 546.644531 120.058594 L 354.589844 191.84375 C 353.433594 192.277344 352.238281 192.492188 351 192.492188 Z M 185.078125 109.273438 L 351 171.292969 L 516.925781 109.273438 L 351 29.53125 Z M 185.078125 109.273438 " fill-opacity="1" fill-rule="nonzero"/></g><path fill="#000000" d="M 351 305.296875 C 331.117188 305.316406 311.394531 303.550781 291.828125 299.992188 C 272.265625 296.4375 253.179688 291.148438 234.578125 284.128906 C 234.0625 283.9375 233.566406 283.703125 233.089844 283.433594 C 232.613281 283.160156 232.160156 282.851562 231.734375 282.507812 C 231.308594 282.164062 230.910156 281.785156 230.542969 281.378906 C 230.175781 280.96875 229.84375 280.535156 229.546875 280.074219 C 229.25 279.609375 228.992188 279.128906 228.773438 278.625 C 228.554688 278.121094 228.375 277.605469 228.238281 277.074219 C 228.101562 276.539062 228.007812 276 227.960938 275.453125 C 227.910156 274.90625 227.902344 274.359375 227.941406 273.8125 L 237.285156 142.855469 C 237.332031 142.183594 237.441406 141.519531 237.621094 140.867188 C 237.796875 140.21875 238.035156 139.589844 238.335938 138.984375 C 238.636719 138.378906 238.996094 137.808594 239.410156 137.277344 C 239.820312 136.742188 240.28125 136.253906 240.792969 135.808594 C 241.300781 135.367188 241.851562 134.976562 242.4375 134.640625 C 243.023438 134.304688 243.636719 134.03125 244.277344 133.816406 C 244.917969 133.601562 245.570312 133.453125 246.242188 133.367188 C 246.914062 133.28125 247.585938 133.261719 248.257812 133.3125 C 248.929688 133.359375 249.59375 133.46875 250.246094 133.648438 C 250.898438 133.824219 251.523438 134.066406 252.128906 134.367188 C 252.734375 134.667969 253.304688 135.027344 253.835938 135.441406 C 254.371094 135.855469 254.859375 136.316406 255.300781 136.824219 C 255.746094 137.335938 256.132812 137.882812 256.46875 138.46875 C 256.804688 139.058594 257.078125 139.671875 257.292969 140.3125 C 257.503906 140.953125 257.65625 141.605469 257.738281 142.277344 C 257.824219 142.945312 257.84375 143.617188 257.792969 144.292969 L 249.003906 267.535156 C 257.195312 270.378906 265.488281 272.871094 273.886719 275.019531 C 282.285156 277.164062 290.757812 278.960938 299.304688 280.398438 C 307.851562 281.839844 316.445312 282.921875 325.082031 283.644531 C 333.722656 284.367188 342.375 284.726562 351.042969 284.726562 C 359.710938 284.726562 368.363281 284.367188 377 283.644531 C 385.640625 282.921875 394.234375 281.839844 402.78125 280.398438 C 411.328125 278.960938 419.800781 277.164062 428.199219 275.019531 C 436.597656 272.871094 444.890625 270.378906 453.078125 267.535156 L 444.25 144.292969 C 444.179688 143.609375 444.179688 142.925781 444.246094 142.242188 C 444.3125 141.558594 444.449219 140.890625 444.648438 140.234375 C 444.851562 139.578125 445.117188 138.949219 445.445312 138.34375 C 445.773438 137.742188 446.160156 137.175781 446.601562 136.652344 C 447.042969 136.125 447.53125 135.648438 448.070312 135.222656 C 448.609375 134.792969 449.183594 134.425781 449.792969 134.113281 C 450.40625 133.800781 451.042969 133.554688 451.703125 133.371094 C 452.367188 133.183594 453.039062 133.070312 453.722656 133.019531 C 454.410156 132.972656 455.089844 132.992188 455.773438 133.078125 C 456.453125 133.167969 457.117188 133.324219 457.769531 133.546875 C 458.417969 133.765625 459.039062 134.050781 459.632812 134.398438 C 460.222656 134.746094 460.777344 135.148438 461.289062 135.605469 C 461.800781 136.0625 462.261719 136.566406 462.671875 137.117188 C 463.082031 137.667969 463.433594 138.253906 463.726562 138.875 C 464.019531 139.496094 464.25 140.140625 464.410156 140.808594 C 464.574219 141.472656 464.671875 142.152344 464.699219 142.835938 L 474.0625 273.804688 C 474.101562 274.351562 474.097656 274.898438 474.046875 275.445312 C 474 275.992188 473.90625 276.535156 473.769531 277.066406 C 473.636719 277.597656 473.457031 278.117188 473.238281 278.621094 C 473.019531 279.125 472.761719 279.609375 472.46875 280.074219 C 472.171875 280.535156 471.839844 280.972656 471.472656 281.378906 C 471.105469 281.789062 470.707031 282.167969 470.28125 282.511719 C 469.855469 282.859375 469.402344 283.167969 468.925781 283.441406 C 468.445312 283.714844 467.953125 283.945312 467.4375 284.140625 C 448.824219 291.132812 429.738281 296.410156 410.175781 299.964844 C 390.613281 303.519531 370.886719 305.296875 351 305.296875 Z M 351 305.296875 " fill-opacity="1" fill-rule="nonzero"/><path fill="#000000" d="M 351 305.296875 C 331.117188 305.316406 311.394531 303.550781 291.828125 299.992188 C 272.265625 296.4375 253.179688 291.148438 234.578125 284.128906 C 234.0625 283.9375 233.566406 283.703125 233.089844 283.433594 C 232.613281 283.160156 232.160156 282.851562 231.734375 282.507812 C 231.308594 282.164062 230.910156 281.785156 230.542969 281.378906 C 230.175781 280.96875 229.84375 280.535156 229.546875 280.074219 C 229.25 279.609375 228.992188 279.128906 228.773438 278.625 C 228.554688 278.121094 228.375 277.605469 228.238281 277.074219 C 228.101562 276.539062 228.007812 276 227.960938 275.453125 C 227.910156 274.90625 227.902344 274.359375 227.941406 273.8125 L 237.285156 142.855469 C 237.332031 142.183594 237.441406 141.519531 237.621094 140.867188 C 237.796875 140.21875 238.035156 139.589844 238.335938 138.984375 C 238.636719 138.378906 238.996094 137.808594 239.410156 137.277344 C 239.820312 136.742188 240.28125 136.253906 240.792969 135.808594 C 241.300781 135.367188 241.851562 134.976562 242.4375 134.640625 C 243.023438 134.304688 243.636719 134.03125 244.277344 133.816406 C 244.917969 133.601562 245.570312 133.453125 246.242188 133.367188 C 246.914062 133.28125 247.585938 133.261719 248.257812 133.3125 C 248.929688 133.359375 249.59375 133.46875 250.246094 133.648438 C 250.898438 133.824219 251.523438 134.066406 252.128906 134.367188 C 252.734375 134.667969 253.304688 135.027344 253.835938 135.441406 C 254.371094 135.855469 254.859375 136.316406 255.300781 136.824219 C 255.746094 137.335938 256.132812 137.882812 256.46875 138.46875 C 256.804688 139.058594 257.078125 139.671875 257.292969 140.3125 C 257.503906 140.953125 257.65625 141.605469 257.738281 142.277344 C 257.824219 142.945312 257.84375 143.617188 257.792969 144.292969 L 249.003906 267.535156 C 257.195312 270.378906 265.488281 272.871094 273.886719 275.019531 C 282.285156 277.164062 290.757812 278.960938 299.304688 280.398438 C 307.851562 281.839844 316.445312 282.921875 325.082031 283.644531 C 333.722656 284.367188 342.375 284.726562 351.042969 284.726562 C 359.710938 284.726562 368.363281 284.367188 377 283.644531 C 385.640625 282.921875 394.234375 281.839844 402.78125 280.398438 C 411.328125 278.960938 419.800781 277.164062 428.199219 275.019531 C 436.597656 272.871094 444.890625 270.378906 453.078125 267.535156 L 444.25 144.292969 C 444.179688 143.609375 444.179688 142.925781 444.246094 142.242188 C 444.3125 141.558594 444.449219 140.890625 444.648438 140.234375 C 444.851562 139.578125 445.117188 138.949219 445.445312 138.34375 C 445.773438 137.742188 446.160156 137.175781 446.601562 136.652344 C 447.042969 136.125 447.53125 135.648438 448.070312 135.222656 C 448.609375 134.792969 449.183594 134.425781 449.792969 134.113281 C 450.40625 133.800781 451.042969 133.554688 451.703125 133.371094 C 452.367188 133.183594 453.039062 133.070312 453.722656 133.019531 C 454.410156 132.972656 455.089844 132.992188 455.773438 133.078125 C 456.453125 133.167969 457.117188 133.324219 457.769531 133.546875 C 458.417969 133.765625 459.039062 134.050781 459.632812 134.398438 C 460.222656 134.746094 460.777344 135.148438 461.289062 135.605469 C 461.800781 136.0625 462.261719 136.566406 462.671875 137.117188 C 463.082031 137.667969 463.433594 138.253906 463.726562 138.875 C 464.019531 139.496094 464.25 140.140625 464.410156 140.808594 C 464.574219 141.472656 464.671875 142.152344 464.699219 142.835938 L 474.0625 273.804688 C 474.101562 274.351562 474.097656 274.898438 474.046875 275.445312 C 474 275.992188 473.90625 276.535156 473.769531 277.066406 C 473.636719 277.597656 473.457031 278.117188 473.238281 278.621094 C 473.019531 279.125 472.761719 279.609375 472.46875 280.074219 C 472.171875 280.535156 471.839844 280.972656 471.472656 281.378906 C 471.105469 281.789062 470.707031 282.167969 470.28125 282.511719 C 469.855469 282.859375 469.402344 283.167969 468.925781 283.441406 C 468.445312 283.714844 467.953125 283.945312 467.4375 284.140625 C 448.824219 291.132812 429.738281 296.410156 410.175781 299.964844 C 390.613281 303.519531 370.886719 305.296875 351 305.296875 Z M 351 305.296875 " fill-opacity="1" fill-rule="nonzero"/><path fill="#000000" d="M 176.667969 182.234375 C 175.992188 182.234375 175.328125 182.171875 174.667969 182.039062 C 174.007812 181.90625 173.363281 181.714844 172.742188 181.457031 C 172.121094 181.199219 171.53125 180.882812 170.96875 180.507812 C 170.410156 180.132812 169.890625 179.707031 169.414062 179.234375 C 168.941406 178.757812 168.515625 178.238281 168.140625 177.679688 C 167.765625 177.117188 167.449219 176.527344 167.191406 175.90625 C 166.933594 175.285156 166.742188 174.640625 166.609375 173.980469 C 166.476562 173.320312 166.414062 172.65625 166.414062 171.980469 L 166.414062 110.453125 C 166.414062 109.777344 166.476562 109.109375 166.609375 108.449219 C 166.742188 107.789062 166.933594 107.148438 167.191406 106.527344 C 167.449219 105.90625 167.765625 105.3125 168.140625 104.753906 C 168.515625 104.195312 168.941406 103.675781 169.414062 103.199219 C 169.890625 102.722656 170.410156 102.296875 170.96875 101.925781 C 171.53125 101.550781 172.121094 101.234375 172.742188 100.976562 C 173.363281 100.71875 174.007812 100.523438 174.667969 100.394531 C 175.328125 100.261719 175.992188 100.195312 176.667969 100.195312 C 177.339844 100.195312 178.007812 100.261719 178.667969 100.394531 C 179.328125 100.523438 179.96875 100.71875 180.589844 100.976562 C 181.214844 101.234375 181.804688 101.550781 182.363281 101.925781 C 182.925781 102.296875 183.441406 102.722656 183.917969 103.199219 C 184.394531 103.675781 184.820312 104.195312 185.195312 104.753906 C 185.566406 105.3125 185.882812 105.90625 186.140625 106.527344 C 186.398438 107.148438 186.59375 107.789062 186.726562 108.449219 C 186.855469 109.109375 186.921875 109.777344 186.921875 110.453125 L 186.921875 171.980469 C 186.921875 172.65625 186.855469 173.320312 186.726562 173.980469 C 186.59375 174.640625 186.398438 175.285156 186.140625 175.90625 C 185.882812 176.527344 185.566406 177.117188 185.195312 177.679688 C 184.820312 178.238281 184.394531 178.757812 183.917969 179.234375 C 183.441406 179.707031 182.925781 180.132812 182.363281 180.507812 C 181.804688 180.882812 181.214844 181.199219 180.589844 181.457031 C 179.96875 181.714844 179.328125 181.90625 178.667969 182.039062 C 178.007812 182.171875 177.339844 182.234375 176.667969 182.234375 Z M 176.667969 182.234375 " fill-opacity="1" fill-rule="nonzero"/><path fill="#000000" d="M 176.667969 182.234375 C 175.992188 182.234375 175.328125 182.171875 174.667969 182.039062 C 174.007812 181.90625 173.363281 181.714844 172.742188 181.457031 C 172.121094 181.199219 171.53125 180.882812 170.96875 180.507812 C 170.410156 180.132812 169.890625 179.707031 169.414062 179.234375 C 168.941406 178.757812 168.515625 178.238281 168.140625 177.679688 C 167.765625 177.117188 167.449219 176.527344 167.191406 175.90625 C 166.933594 175.285156 166.742188 174.640625 166.609375 173.980469 C 166.476562 173.320312 166.414062 172.65625 166.414062 171.980469 L 166.414062 110.453125 C 166.414062 109.777344 166.476562 109.109375 166.609375 108.449219 C 166.742188 107.789062 166.933594 107.148438 167.191406 106.527344 C 167.449219 105.90625 167.765625 105.3125 168.140625 104.753906 C 168.515625 104.195312 168.941406 103.675781 169.414062 103.199219 C 169.890625 102.722656 170.410156 102.296875 170.96875 101.925781 C 171.53125 101.550781 172.121094 101.234375 172.742188 100.976562 C 173.363281 100.71875 174.007812 100.523438 174.667969 100.394531 C 175.328125 100.261719 175.992188 100.195312 176.667969 100.195312 C 177.339844 100.195312 178.007812 100.261719 178.667969 100.394531 C 179.328125 100.523438 179.96875 100.71875 180.589844 100.976562 C 181.214844 101.234375 181.804688 101.550781 182.363281 101.925781 C 182.925781 102.296875 183.441406 102.722656 183.917969 103.199219 C 184.394531 103.675781 184.820312 104.195312 185.195312 104.753906 C 185.566406 105.3125 185.882812 105.90625 186.140625 106.527344 C 186.398438 107.148438 186.59375 107.789062 186.726562 108.449219 C 186.855469 109.109375 186.921875 109.777344 186.921875 110.453125 L 186.921875 171.980469 C 186.921875 172.65625 186.855469 173.320312 186.726562 173.980469 C 186.59375 174.640625 186.398438 175.285156 186.140625 175.90625 C 185.882812 176.527344 185.566406 177.117188 185.195312 177.679688 C 184.820312 178.238281 184.394531 178.757812 183.917969 179.234375 C 183.441406 179.707031 182.925781 180.132812 182.363281 180.507812 C 181.804688 180.882812 181.214844 181.199219 180.589844 181.457031 C 179.96875 181.714844 179.328125 181.90625 178.667969 182.039062 C 178.007812 182.171875 177.339844 182.234375 176.667969 182.234375 Z M 176.667969 182.234375 " fill-opacity="1" fill-rule="nonzero"/><path fill="#000000" d="M 176.667969 223.257812 C 175.660156 223.257812 174.65625 223.207031 173.652344 223.109375 C 172.648438 223.007812 171.652344 222.863281 170.664062 222.664062 C 169.675781 222.46875 168.699219 222.222656 167.738281 221.929688 C 166.773438 221.640625 165.824219 221.300781 164.894531 220.914062 C 163.964844 220.527344 163.054688 220.097656 162.164062 219.625 C 161.277344 219.148438 160.414062 218.632812 159.574219 218.070312 C 158.738281 217.511719 157.929688 216.910156 157.148438 216.273438 C 156.371094 215.632812 155.625 214.957031 154.914062 214.246094 C 154.199219 213.53125 153.523438 212.785156 152.886719 212.007812 C 152.246094 211.230469 151.648438 210.421875 151.085938 209.582031 C 150.527344 208.746094 150.011719 207.882812 149.535156 206.992188 C 149.058594 206.105469 148.628906 205.195312 148.242188 204.265625 C 147.859375 203.332031 147.519531 202.386719 147.226562 201.421875 C 146.933594 200.457031 146.691406 199.480469 146.492188 198.492188 C 146.296875 197.503906 146.148438 196.507812 146.050781 195.507812 C 145.953125 194.503906 145.902344 193.5 145.902344 192.492188 C 145.902344 191.484375 145.953125 190.476562 146.050781 189.476562 C 146.148438 188.472656 146.296875 187.476562 146.492188 186.488281 C 146.691406 185.5 146.933594 184.523438 147.226562 183.5625 C 147.519531 182.597656 147.859375 181.648438 148.242188 180.71875 C 148.628906 179.785156 149.058594 178.878906 149.535156 177.988281 C 150.011719 177.101562 150.527344 176.238281 151.085938 175.398438 C 151.648438 174.5625 152.246094 173.753906 152.886719 172.972656 C 153.523438 172.195312 154.199219 171.449219 154.914062 170.738281 C 155.625 170.023438 156.371094 169.347656 157.148438 168.710938 C 157.929688 168.070312 158.738281 167.472656 159.574219 166.910156 C 160.414062 166.351562 161.277344 165.832031 162.164062 165.359375 C 163.054688 164.882812 163.964844 164.453125 164.894531 164.066406 C 165.824219 163.683594 166.773438 163.34375 167.738281 163.050781 C 168.699219 162.757812 169.675781 162.515625 170.664062 162.316406 C 171.652344 162.121094 172.648438 161.972656 173.652344 161.875 C 174.65625 161.777344 175.660156 161.726562 176.667969 161.726562 C 177.675781 161.726562 178.679688 161.777344 179.683594 161.875 C 180.683594 161.972656 181.679688 162.121094 182.667969 162.316406 C 183.65625 162.515625 184.632812 162.757812 185.597656 163.050781 C 186.5625 163.34375 187.507812 163.683594 188.441406 164.066406 C 189.371094 164.453125 190.28125 164.882812 191.167969 165.359375 C 192.058594 165.832031 192.921875 166.351562 193.757812 166.910156 C 194.597656 167.472656 195.40625 168.070312 196.183594 168.710938 C 196.964844 169.347656 197.707031 170.023438 198.421875 170.738281 C 199.132812 171.449219 199.808594 172.195312 200.449219 172.972656 C 201.089844 173.753906 201.6875 174.5625 202.246094 175.398438 C 202.808594 176.238281 203.324219 177.101562 203.800781 177.988281 C 204.273438 178.878906 204.703125 179.785156 205.089844 180.71875 C 205.476562 181.648438 205.816406 182.597656 206.105469 183.5625 C 206.398438 184.523438 206.644531 185.5 206.839844 186.488281 C 207.039062 187.476562 207.183594 188.472656 207.285156 189.476562 C 207.382812 190.476562 207.433594 191.484375 207.433594 192.492188 C 207.433594 193.5 207.382812 194.503906 207.285156 195.507812 C 207.183594 196.507812 207.039062 197.503906 206.839844 198.492188 C 206.644531 199.480469 206.398438 200.457031 206.105469 201.421875 C 205.816406 202.386719 205.476562 203.332031 205.089844 204.265625 C 204.703125 205.195312 204.273438 206.105469 203.800781 206.992188 C 203.324219 207.882812 202.808594 208.746094 202.246094 209.582031 C 201.6875 210.421875 201.089844 211.230469 200.449219 212.007812 C 199.808594 212.785156 199.132812 213.53125 198.421875 214.246094 C 197.707031 214.957031 196.964844 215.632812 196.183594 216.273438 C 195.40625 216.910156 194.597656 217.511719 193.757812 218.070312 C 192.921875 218.632812 192.058594 219.148438 191.167969 219.625 C 190.28125 220.097656 189.371094 220.527344 188.441406 220.914062 C 187.507812 221.300781 186.5625 221.640625 185.597656 221.929688 C 184.632812 222.222656 183.65625 222.46875 182.667969 222.664062 C 181.679688 222.863281 180.683594 223.007812 179.683594 223.109375 C 178.679688 223.207031 177.675781 223.257812 176.667969 223.257812 Z M 176.667969 182.234375 C 175.992188 182.234375 175.328125 182.300781 174.667969 182.433594 C 174.007812 182.566406 173.363281 182.757812 172.742188 183.015625 C 172.121094 183.273438 171.53125 183.589844 170.96875 183.964844 C 170.410156 184.339844 169.890625 184.761719 169.414062 185.238281 C 168.941406 185.714844 168.515625 186.234375 168.140625 186.792969 C 167.765625 187.355469 167.449219 187.945312 167.191406 188.566406 C 166.933594 189.1875 166.742188 189.828125 166.609375 190.492188 C 166.476562 191.152344 166.414062 191.816406 166.414062 192.492188 C 166.414062 193.164062 166.476562 193.832031 166.609375 194.492188 C 166.742188 195.152344 166.933594 195.792969 167.191406 196.414062 C 167.449219 197.039062 167.765625 197.628906 168.140625 198.1875 C 168.515625 198.75 168.941406 199.265625 169.414062 199.742188 C 169.890625 200.21875 170.410156 200.644531 170.96875 201.019531 C 171.53125 201.390625 172.121094 201.707031 172.742188 201.964844 C 173.363281 202.222656 174.007812 202.417969 174.667969 202.550781 C 175.328125 202.679688 175.992188 202.746094 176.667969 202.746094 C 177.339844 202.746094 178.007812 202.679688 178.667969 202.550781 C 179.328125 202.417969 179.96875 202.222656 180.589844 201.964844 C 181.214844 201.707031 181.804688 201.390625 182.363281 201.019531 C 182.925781 200.644531 183.441406 200.21875 183.917969 199.742188 C 184.394531 199.265625 184.820312 198.75 185.195312 198.1875 C 185.566406 197.628906 185.882812 197.039062 186.140625 196.414062 C 186.398438 195.792969 186.59375 195.152344 186.726562 194.492188 C 186.855469 193.832031 186.921875 193.164062 186.921875 192.492188 C 186.921875 191.816406 186.855469 191.152344 186.726562 190.492188 C 186.59375 189.828125 186.398438 189.1875 186.140625 188.566406 C 185.882812 187.945312 185.566406 187.355469 185.195312 186.792969 C 184.820312 186.234375 184.394531 185.714844 183.917969 185.238281 C 183.441406 184.761719 182.925781 184.339844 182.363281 183.964844 C 181.804688 183.589844 181.214844 183.273438 180.589844 183.015625 C 179.96875 182.757812 179.328125 182.566406 178.667969 182.433594 C 178.007812 182.300781 177.339844 182.234375 176.667969 182.234375 Z M 176.667969 182.234375 " fill-opacity="1" fill-rule="nonzero"/><path fill="#000000" d="M 176.667969 223.257812 C 175.660156 223.257812 174.65625 223.207031 173.652344 223.109375 C 172.648438 223.007812 171.652344 222.863281 170.664062 222.664062 C 169.675781 222.46875 168.699219 222.222656 167.738281 221.929688 C 166.773438 221.640625 165.824219 221.300781 164.894531 220.914062 C 163.964844 220.527344 163.054688 220.097656 162.164062 219.625 C 161.277344 219.148438 160.414062 218.632812 159.574219 218.070312 C 158.738281 217.511719 157.929688 216.910156 157.148438 216.273438 C 156.371094 215.632812 155.625 214.957031 154.914062 214.246094 C 154.199219 213.53125 153.523438 212.785156 152.886719 212.007812 C 152.246094 211.230469 151.648438 210.421875 151.085938 209.582031 C 150.527344 208.746094 150.011719 207.882812 149.535156 206.992188 C 149.058594 206.105469 148.628906 205.195312 148.242188 204.265625 C 147.859375 203.332031 147.519531 202.386719 147.226562 201.421875 C 146.933594 200.457031 146.691406 199.480469 146.492188 198.492188 C 146.296875 197.503906 146.148438 196.507812 146.050781 195.507812 C 145.953125 194.503906 145.902344 193.5 145.902344 192.492188 C 145.902344 191.484375 145.953125 190.476562 146.050781 189.476562 C 146.148438 188.472656 146.296875 187.476562 146.492188 186.488281 C 146.691406 185.5 146.933594 184.523438 147.226562 183.5625 C 147.519531 182.597656 147.859375 181.648438 148.242188 180.71875 C 148.628906 179.785156 149.058594 178.878906 149.535156 177.988281 C 150.011719 177.101562 150.527344 176.238281 151.085938 175.398438 C 151.648438 174.5625 152.246094 173.753906 152.886719 172.972656 C 153.523438 172.195312 154.199219 171.449219 154.914062 170.738281 C 155.625 170.023438 156.371094 169.347656 157.148438 168.710938 C 157.929688 168.070312 158.738281 167.472656 159.574219 166.910156 C 160.414062 166.351562 161.277344 165.832031 162.164062 165.359375 C 163.054688 164.882812 163.964844 164.453125 164.894531 164.066406 C 165.824219 163.683594 166.773438 163.34375 167.738281 163.050781 C 168.699219 162.757812 169.675781 162.515625 170.664062 162.316406 C 171.652344 162.121094 172.648438 161.972656 173.652344 161.875 C 174.65625 161.777344 175.660156 161.726562 176.667969 161.726562 C 177.675781 161.726562 178.679688 161.777344 179.683594 161.875 C 180.683594 161.972656 181.679688 162.121094 182.667969 162.316406 C 183.65625 162.515625 184.632812 162.757812 185.597656 163.050781 C 186.5625 163.34375 187.507812 163.683594 188.441406 164.066406 C 189.371094 164.453125 190.28125 164.882812 191.167969 165.359375 C 192.058594 165.832031 192.921875 166.351562 193.757812 166.910156 C 194.597656 167.472656 195.40625 168.070312 196.183594 168.710938 C 196.964844 169.347656 197.707031 170.023438 198.421875 170.738281 C 199.132812 171.449219 199.808594 172.195312 200.449219 172.972656 C 201.089844 173.753906 201.6875 174.5625 202.246094 175.398438 C 202.808594 176.238281 203.324219 177.101562 203.800781 177.988281 C 204.273438 178.878906 204.703125 179.785156 205.089844 180.71875 C 205.476562 181.648438 205.816406 182.597656 206.105469 183.5625 C 206.398438 184.523438 206.644531 185.5 206.839844 186.488281 C 207.039062 187.476562 207.183594 188.472656 207.285156 189.476562 C 207.382812 190.476562 207.433594 191.484375 207.433594 192.492188 C 207.433594 193.5 207.382812 194.503906 207.285156 195.507812 C 207.183594 196.507812 207.039062 197.503906 206.839844 198.492188 C 206.644531 199.480469 206.398438 200.457031 206.105469 201.421875 C 205.816406 202.386719 205.476562 203.332031 205.089844 204.265625 C 204.703125 205.195312 204.273438 206.105469 203.800781 206.992188 C 203.324219 207.882812 202.808594 208.746094 202.246094 209.582031 C 201.6875 210.421875 201.089844 211.230469 200.449219 212.007812 C 199.808594 212.785156 199.132812 213.53125 198.421875 214.246094 C 197.707031 214.957031 196.964844 215.632812 196.183594 216.273438 C 195.40625 216.910156 194.597656 217.511719 193.757812 218.070312 C 192.921875 218.632812 192.058594 219.148438 191.167969 219.625 C 190.28125 220.097656 189.371094 220.527344 188.441406 220.914062 C 187.507812 221.300781 186.5625 221.640625 185.597656 221.929688 C 184.632812 222.222656 183.65625 222.46875 182.667969 222.664062 C 181.679688 222.863281 180.683594 223.007812 179.683594 223.109375 C 178.679688 223.207031 177.675781 223.257812 176.667969 223.257812 Z M 176.667969 182.234375 C 175.992188 182.234375 175.328125 182.300781 174.667969 182.433594 C 174.007812 182.566406 173.363281 182.757812 172.742188 183.015625 C 172.121094 183.273438 171.53125 183.589844 170.96875 183.964844 C 170.410156 184.339844 169.890625 184.761719 169.414062 185.238281 C 168.941406 185.714844 168.515625 186.234375 168.140625 186.792969 C 167.765625 187.355469 167.449219 187.945312 167.191406 188.566406 C 166.933594 189.1875 166.742188 189.828125 166.609375 190.492188 C 166.476562 191.152344 166.414062 191.816406 166.414062 192.492188 C 166.414062 193.164062 166.476562 193.832031 166.609375 194.492188 C 166.742188 195.152344 166.933594 195.792969 167.191406 196.414062 C 167.449219 197.039062 167.765625 197.628906 168.140625 198.1875 C 168.515625 198.75 168.941406 199.265625 169.414062 199.742188 C 169.890625 200.21875 170.410156 200.644531 170.96875 201.019531 C 171.53125 201.390625 172.121094 201.707031 172.742188 201.964844 C 173.363281 202.222656 174.007812 202.417969 174.667969 202.550781 C 175.328125 202.679688 175.992188 202.746094 176.667969 202.746094 C 177.339844 202.746094 178.007812 202.679688 178.667969 202.550781 C 179.328125 202.417969 179.96875 202.222656 180.589844 201.964844 C 181.214844 201.707031 181.804688 201.390625 182.363281 201.019531 C 182.925781 200.644531 183.441406 200.21875 183.917969 199.742188 C 184.394531 199.265625 184.820312 198.75 185.195312 198.1875 C 185.566406 197.628906 185.882812 197.039062 186.140625 196.414062 C 186.398438 195.792969 186.59375 195.152344 186.726562 194.492188 C 186.855469 193.832031 186.921875 193.164062 186.921875 192.492188 C 186.921875 191.816406 186.855469 191.152344 186.726562 190.492188 C 186.59375 189.828125 186.398438 189.1875 186.140625 188.566406 C 185.882812 187.945312 185.566406 187.355469 185.195312 186.792969 C 184.820312 186.234375 184.394531 185.714844 183.917969 185.238281 C 183.441406 184.761719 182.925781 184.339844 182.363281 183.964844 C 181.804688 183.589844 181.214844 183.273438 180.589844 183.015625 C 179.96875 182.757812 179.328125 182.566406 178.667969 182.433594 C 178.007812 182.300781 177.339844 182.234375 176.667969 182.234375 Z M 176.667969 182.234375 " fill-opacity="1" fill-rule="nonzero"/><path fill="#000000" d="M 207.433594 284.785156 L 145.902344 284.785156 C 145.507812 284.785156 145.113281 284.761719 144.722656 284.714844 C 144.328125 284.671875 143.941406 284.601562 143.554688 284.511719 C 143.171875 284.421875 142.792969 284.308594 142.421875 284.175781 C 142.050781 284.039062 141.6875 283.882812 141.332031 283.707031 C 140.980469 283.53125 140.636719 283.335938 140.304688 283.121094 C 139.976562 282.902344 139.65625 282.667969 139.355469 282.417969 C 139.050781 282.164062 138.761719 281.894531 138.488281 281.609375 C 138.214844 281.324219 137.960938 281.023438 137.722656 280.707031 C 137.484375 280.390625 137.265625 280.0625 137.066406 279.722656 C 136.867188 279.382812 136.6875 279.03125 136.527344 278.667969 C 136.367188 278.308594 136.230469 277.9375 136.113281 277.558594 C 135.996094 277.183594 135.902344 276.800781 135.828125 276.410156 C 135.757812 276.023438 135.707031 275.632812 135.679688 275.238281 C 135.652344 274.84375 135.648438 274.449219 135.664062 274.054688 C 135.683594 273.660156 135.726562 273.265625 135.789062 272.875 C 135.851562 272.484375 135.9375 272.101562 136.046875 271.722656 L 154.699219 206.292969 C 154.894531 205.65625 155.144531 205.039062 155.457031 204.449219 C 155.769531 203.859375 156.132812 203.304688 156.554688 202.785156 C 156.972656 202.265625 157.441406 201.792969 157.953125 201.363281 C 158.464844 200.9375 159.015625 200.5625 159.601562 200.242188 C 160.1875 199.921875 160.796875 199.660156 161.433594 199.457031 C 162.070312 199.257812 162.722656 199.121094 163.386719 199.046875 C 164.046875 198.972656 164.714844 198.960938 165.378906 199.015625 C 166.042969 199.074219 166.699219 199.191406 167.339844 199.375 C 167.980469 199.558594 168.601562 199.804688 169.195312 200.105469 C 169.789062 200.410156 170.347656 200.769531 170.875 201.183594 C 171.398438 201.597656 171.878906 202.058594 172.3125 202.5625 C 172.746094 203.070312 173.128906 203.617188 173.457031 204.195312 C 173.785156 204.777344 174.054688 205.386719 174.261719 206.019531 C 174.472656 206.65625 174.617188 207.304688 174.699219 207.964844 C 174.785156 208.628906 174.800781 209.292969 174.753906 209.957031 C 174.707031 210.625 174.597656 211.28125 174.421875 211.925781 L 159.488281 264.277344 L 193.84375 264.277344 L 178.914062 211.976562 C 178.71875 211.324219 178.589844 210.660156 178.527344 209.984375 C 178.464844 209.308594 178.46875 208.632812 178.539062 207.960938 C 178.609375 207.285156 178.746094 206.621094 178.949219 205.972656 C 179.152344 205.328125 179.414062 204.703125 179.742188 204.109375 C 180.066406 203.511719 180.449219 202.957031 180.886719 202.4375 C 181.320312 201.917969 181.804688 201.445312 182.335938 201.019531 C 182.867188 200.597656 183.433594 200.230469 184.039062 199.917969 C 184.640625 199.605469 185.269531 199.359375 185.921875 199.171875 C 186.574219 198.984375 187.238281 198.867188 187.914062 198.8125 C 188.59375 198.757812 189.269531 198.769531 189.941406 198.847656 C 190.617188 198.929688 191.277344 199.074219 191.921875 199.285156 C 192.566406 199.496094 193.183594 199.769531 193.777344 200.101562 C 194.367188 200.4375 194.921875 200.824219 195.433594 201.269531 C 195.949219 201.710938 196.414062 202.199219 196.832031 202.738281 C 197.25 203.273438 197.609375 203.84375 197.910156 204.453125 C 198.214844 205.058594 198.457031 205.691406 198.632812 206.34375 L 217.289062 271.773438 C 217.394531 272.152344 217.476562 272.535156 217.539062 272.925781 C 217.601562 273.3125 217.640625 273.703125 217.65625 274.097656 C 217.671875 274.492188 217.667969 274.882812 217.636719 275.277344 C 217.609375 275.667969 217.558594 276.058594 217.484375 276.445312 C 217.410156 276.832031 217.316406 277.214844 217.199219 277.589844 C 217.082031 277.964844 216.941406 278.335938 216.78125 278.695312 C 216.621094 279.054688 216.441406 279.402344 216.242188 279.742188 C 216.042969 280.082031 215.824219 280.40625 215.585938 280.722656 C 215.347656 281.035156 215.09375 281.335938 214.820312 281.621094 C 214.546875 281.902344 214.261719 282.171875 213.957031 282.421875 C 213.65625 282.675781 213.339844 282.90625 213.007812 283.125 C 212.679688 283.339844 212.335938 283.535156 211.984375 283.707031 C 211.632812 283.882812 211.269531 284.039062 210.902344 284.171875 C 210.53125 284.308594 210.152344 284.417969 209.769531 284.511719 C 209.386719 284.601562 209 284.667969 208.609375 284.714844 C 208.21875 284.761719 207.824219 284.785156 207.433594 284.785156 Z M 207.433594 284.785156 " fill-opacity="1" fill-rule="nonzero"/><path fill="#000000" d="M 207.433594 284.785156 L 145.902344 284.785156 C 145.507812 284.785156 145.113281 284.761719 144.722656 284.714844 C 144.328125 284.671875 143.941406 284.601562 143.554688 284.511719 C 143.171875 284.421875 142.792969 284.308594 142.421875 284.175781 C 142.050781 284.039062 141.6875 283.882812 141.332031 283.707031 C 140.980469 283.53125 140.636719 283.335938 140.304688 283.121094 C 139.976562 282.902344 139.65625 282.667969 139.355469 282.417969 C 139.050781 282.164062 138.761719 281.894531 138.488281 281.609375 C 138.214844 281.324219 137.960938 281.023438 137.722656 280.707031 C 137.484375 280.390625 137.265625 280.0625 137.066406 279.722656 C 136.867188 279.382812 136.6875 279.03125 136.527344 278.667969 C 136.367188 278.308594 136.230469 277.9375 136.113281 277.558594 C 135.996094 277.183594 135.902344 276.800781 135.828125 276.410156 C 135.757812 276.023438 135.707031 275.632812 135.679688 275.238281 C 135.652344 274.84375 135.648438 274.449219 135.664062 274.054688 C 135.683594 273.660156 135.726562 273.265625 135.789062 272.875 C 135.851562 272.484375 135.9375 272.101562 136.046875 271.722656 L 154.699219 206.292969 C 154.894531 205.65625 155.144531 205.039062 155.457031 204.449219 C 155.769531 203.859375 156.132812 203.304688 156.554688 202.785156 C 156.972656 202.265625 157.441406 201.792969 157.953125 201.363281 C 158.464844 200.9375 159.015625 200.5625 159.601562 200.242188 C 160.1875 199.921875 160.796875 199.660156 161.433594 199.457031 C 162.070312 199.257812 162.722656 199.121094 163.386719 199.046875 C 164.046875 198.972656 164.714844 198.960938 165.378906 199.015625 C 166.042969 199.074219 166.699219 199.191406 167.339844 199.375 C 167.980469 199.558594 168.601562 199.804688 169.195312 200.105469 C 169.789062 200.410156 170.347656 200.769531 170.875 201.183594 C 171.398438 201.597656 171.878906 202.058594 172.3125 202.5625 C 172.746094 203.070312 173.128906 203.617188 173.457031 204.195312 C 173.785156 204.777344 174.054688 205.386719 174.261719 206.019531 C 174.472656 206.65625 174.617188 207.304688 174.699219 207.964844 C 174.785156 208.628906 174.800781 209.292969 174.753906 209.957031 C 174.707031 210.625 174.597656 211.28125 174.421875 211.925781 L 159.488281 264.277344 L 193.84375 264.277344 L 178.914062 211.976562 C 178.71875 211.324219 178.589844 210.660156 178.527344 209.984375 C 178.464844 209.308594 178.46875 208.632812 178.539062 207.960938 C 178.609375 207.285156 178.746094 206.621094 178.949219 205.972656 C 179.152344 205.328125 179.414062 204.703125 179.742188 204.109375 C 180.066406 203.511719 180.449219 202.957031 180.886719 202.4375 C 181.320312 201.917969 181.804688 201.445312 182.335938 201.019531 C 182.867188 200.597656 183.433594 200.230469 184.039062 199.917969 C 184.640625 199.605469 185.269531 199.359375 185.921875 199.171875 C 186.574219 198.984375 187.238281 198.867188 187.914062 198.8125 C 188.59375 198.757812 189.269531 198.769531 189.941406 198.847656 C 190.617188 198.929688 191.277344 199.074219 191.921875 199.285156 C 192.566406 199.496094 193.183594 199.769531 193.777344 200.101562 C 194.367188 200.4375 194.921875 200.824219 195.433594 201.269531 C 195.949219 201.710938 196.414062 202.199219 196.832031 202.738281 C 197.25 203.273438 197.609375 203.84375 197.910156 204.453125 C 198.214844 205.058594 198.457031 205.691406 198.632812 206.34375 L 217.289062 271.773438 C 217.394531 272.152344 217.476562 272.535156 217.539062 272.925781 C 217.601562 273.3125 217.640625 273.703125 217.65625 274.097656 C 217.671875 274.492188 217.667969 274.882812 217.636719 275.277344 C 217.609375 275.667969 217.558594 276.058594 217.484375 276.445312 C 217.410156 276.832031 217.316406 277.214844 217.199219 277.589844 C 217.082031 277.964844 216.941406 278.335938 216.78125 278.695312 C 216.621094 279.054688 216.441406 279.402344 216.242188 279.742188 C 216.042969 280.082031 215.824219 280.40625 215.585938 280.722656 C 215.347656 281.035156 215.09375 281.335938 214.820312 281.621094 C 214.546875 281.902344 214.261719 282.171875 213.957031 282.421875 C 213.65625 282.675781 213.339844 282.90625 213.007812 283.125 C 212.679688 283.339844 212.335938 283.535156 211.984375 283.707031 C 211.632812 283.882812 211.269531 284.039062 210.902344 284.171875 C 210.53125 284.308594 210.152344 284.417969 209.769531 284.511719 C 209.386719 284.601562 209 284.667969 208.609375 284.714844 C 208.21875 284.761719 207.824219 284.785156 207.433594 284.785156 Z M 207.433594 284.785156 " fill-opacity="1" fill-rule="nonzero"/></svg>